<?xml version="1.0" encoding="UTF-8"?><svg id="Layer_1" xmlns="http://www.w3.org/2000/svg" viewBox="0 0 1222.5 490"><g id="dark"><path d="M305.79,357.51c-.98,3.31-1.47,6.69-1.47,10.13s.49,6.57,1.47,9.76c.98,3.19,2.49,6.07,4.51,8.65,2.03,2.58,4.57,4.66,7.64,6.26,3.07,1.6,6.69,2.39,10.86,2.39s8.22-.83,11.78-2.49,6.57-3.9,9.02-6.72l12.89,13.99c-4.05,4.3-8.84,7.73-14.36,10.31s-11.97,3.87-19.33,3.87-13.93-1.11-19.7-3.31c-5.77-2.21-10.62-5.34-14.55-9.39s-6.94-8.9-9.02-14.55c-2.09-5.64-3.13-11.9-3.13-18.78,0-6.26,1.13-12.18,3.41-17.77,2.27-5.58,5.43-10.46,9.48-14.64,4.05-4.17,8.93-7.49,14.64-9.94,5.71-2.45,12-3.68,18.87-3.68s13.38,1.26,19.15,3.77c5.77,2.52,10.68,5.92,14.73,10.22l-13.81,13.99c-2.46-2.82-5.34-5.03-8.65-6.63-3.31-1.59-7.12-2.39-11.42-2.39s-7.8,.77-10.86,2.3c-3.07,1.54-5.62,3.53-7.64,5.98-2.02,2.47-3.53,5.35-4.51,8.67Zm112.13-34.62c-3.56,0-6.72,.43-9.48,1.29s-5.19,1.91-7.27,3.13c-2.09,1.23-3.9,2.58-5.43,4.05-1.54,1.47-2.79,2.82-3.77,4.05l-.55-10.86h-20.82v86.35h21.73v-46.58c0-3.19,.58-6.08,1.75-8.65,1.16-2.58,2.73-4.79,4.69-6.63s4.3-3.25,7-4.23,5.52-1.47,8.47-1.47c2.09,0,3.9,.12,5.43,.37s3.04,.68,4.51,1.29l4.42-20.44c-1.72-.61-3.41-1.04-5.06-1.29-1.66-.25-3.54-.38-5.62-.38Zm63.7,60.76l-24.67-59.1h-25.04l38.85,85.62-2.76,7c-2.09,5.16-4.08,8.96-5.98,11.42-1.9,2.45-4.33,3.68-7.27,3.68-2.21,0-4.05-.46-5.52-1.38s-2.82-1.87-4.05-2.85l-9.76,15.28c2.45,2.09,5.31,3.71,8.56,4.88,3.25,1.16,7.33,1.75,12.24,1.75,5.64,0,10.31-1.23,13.99-3.68,3.68-2.46,6.78-5.62,9.3-9.48,2.51-3.87,4.63-8.07,6.35-12.61,1.72-4.54,3.43-8.96,5.16-13.26l36.09-86.35h-23.75l-21.74,59.08Zm136.99-32.22c1.59,5.4,2.39,10.99,2.39,16.76,0,6.75-.98,12.52-2.95,17.31-1.97,4.79-4.42,8.96-7.36,12.52-4.91,5.89-10.28,10-16.11,12.34-5.83,2.33-11.82,3.5-17.95,3.5-2.83,0-5.25-.12-7.27-.37-2.03-.25-3.87-.58-5.52-1.01-1.66-.43-3.19-.92-4.6-1.47s-2.92-1.13-4.51-1.75v38.48h-21.54v-123.19h20.99l.55,9.76c1.1-1.23,2.49-2.51,4.14-3.87,1.66-1.35,3.62-2.58,5.89-3.68s4.85-2.03,7.73-2.76c2.88-.74,6.11-1.1,9.67-1.1,6.63,0,12.36,1.29,17.22,3.87,4.85,2.58,8.87,5.98,12.06,10.22,3.18,4.22,5.57,9.04,7.17,14.44Zm-19.52,16.76c0-3.68-.4-7.12-1.2-10.31-.8-3.19-2.09-5.98-3.87-8.38-1.78-2.39-4.08-4.29-6.9-5.71-2.83-1.41-6.32-2.12-10.49-2.12-3.31,0-6.32,.71-9.02,2.12s-5,3.22-6.9,5.43-3.38,4.63-4.42,7.27-1.56,5.19-1.56,7.64v25.59c4.3,3.56,10.8,5.34,19.52,5.34,3.93,0,7.43-.77,10.49-2.3,3.07-1.53,5.68-3.56,7.83-6.08,2.15-2.51,3.77-5.37,4.88-8.56,1.09-3.18,1.64-6.5,1.64-9.93Zm81.11,25.59c-2.02,.98-4.76,1.47-8.19,1.47-3.68,0-6.35-1.32-8.01-3.96-1.66-2.64-2.48-6.41-2.48-11.32v-37.74h23.2v-17.68h-23.2v-27.99h-21.73v27.99h-14.73v17.68h14.73v39.22c0,4.79,.49,9.18,1.47,13.16,.98,3.99,2.61,7.4,4.88,10.22,2.27,2.83,5.25,5,8.93,6.54,3.68,1.53,8.16,2.3,13.44,2.3s9.82-.77,13.99-2.3,8.41-4.08,12.7-7.64l-9.2-13.45c-1.85,1.35-3.78,2.52-5.8,3.5Zm105.27-43.91c2.27,5.59,3.41,11.51,3.41,17.77s-1.14,12.18-3.41,17.77c-2.27,5.59-5.43,10.49-9.48,14.73-4.05,4.24-8.93,7.58-14.64,10.04-5.71,2.45-12,3.68-18.87,3.68s-13.17-1.23-18.87-3.68c-5.71-2.45-10.59-5.8-14.64-10.04-4.05-4.23-7.21-9.14-9.48-14.73-2.27-5.58-3.41-11.51-3.41-17.77s1.13-12.18,3.41-17.77c2.27-5.58,5.43-10.46,9.48-14.64,4.05-4.17,8.93-7.49,14.64-9.94,5.71-2.45,12-3.68,18.87-3.68s13.16,1.23,18.87,3.68c5.71,2.46,10.59,5.77,14.64,9.94s7.21,9.05,9.48,14.64Zm-18.5,17.77c0-3.07-.49-6.23-1.47-9.48-.98-3.25-2.49-6.2-4.51-8.84-2.03-2.64-4.57-4.79-7.64-6.44-3.07-1.66-6.69-2.49-10.86-2.49s-7.8,.83-10.86,2.49c-3.07,1.66-5.62,3.81-7.64,6.44-2.03,2.64-3.53,5.59-4.51,8.84s-1.47,6.42-1.47,9.48,.49,6.38,1.47,9.57c.98,3.19,2.49,6.14,4.51,8.84,2.03,2.7,4.57,4.88,7.64,6.53,3.07,1.66,6.69,2.49,10.86,2.49s7.79-.83,10.86-2.49,5.62-3.83,7.64-6.53c2.03-2.7,3.53-5.65,4.51-8.84,.98-3.19,1.47-6.38,1.47-9.57Zm119.86-44.93c-3.44,0-6.51,.37-9.21,1.1-2.7,.74-5.13,1.69-7.27,2.85-2.15,1.17-3.99,2.42-5.52,3.77-1.54,1.35-2.85,2.64-3.96,3.87l-.55-9.76h-20.81v86.35h21.73v-46.77c0-3.19,.52-6.17,1.57-8.93,1.04-2.76,2.49-5.18,4.33-7.27s4.05-3.71,6.63-4.88c2.58-1.16,5.34-1.75,8.29-1.75,4.79,0,8.68,1.5,11.69,4.51s4.51,7.27,4.51,12.8v52.29h21.73v-52.47c0-10.92-2.82-19.61-8.47-26.05-5.66-6.44-13.89-9.66-24.69-9.66Zm126.86,30.38c1.47,5.89,2.21,11.91,2.21,18.04v3.13h-64.44c0,3.19,.71,6.08,2.12,8.65,1.41,2.58,3.25,4.79,5.52,6.63,2.27,1.84,4.85,3.25,7.73,4.23s5.74,1.47,8.56,1.47c4.17,0,7.82-.4,10.96-1.2,3.13-.8,5.8-1.72,8.01-2.76s4.02-2.15,5.43-3.31,2.49-2.12,3.22-2.85l11.78,13.26c-.37,.37-1.38,1.38-3.04,3.04-1.66,1.66-4.05,3.41-7.18,5.25s-7.12,3.5-11.97,4.97-10.65,2.21-17.4,2.21-13.14-1.17-18.78-3.5c-5.65-2.33-10.47-5.55-14.45-9.67-3.99-4.11-7.06-9.05-9.21-14.82s-3.22-12.15-3.22-19.15c0-6.38,1.07-12.3,3.22-17.77,2.15-5.46,5.16-10.22,9.02-14.27,3.87-4.05,8.47-7.24,13.81-9.57s11.26-3.5,17.77-3.5c7.85,0,14.51,1.44,19.98,4.33,5.46,2.89,9.85,6.66,13.16,11.32,3.32,4.67,5.72,9.95,7.19,15.84Zm-20.07,5.52c0-2.21-.43-4.42-1.29-6.63s-2.12-4.2-3.77-5.98c-1.66-1.78-3.77-3.25-6.35-4.42-2.58-1.16-5.52-1.75-8.84-1.75-3.56,0-6.72,.58-9.48,1.75s-5.06,2.64-6.9,4.42-3.25,3.78-4.24,5.98c-.98,2.21-1.47,4.42-1.47,6.63h42.34Zm132.57-34.06l-16.39,60.02-18.41-60.02h-18.23l-18.23,60.02-16.57-60.02h-23.94l29.27,86.35h20.25l17.12-52.11,17.67,52.11h20.99l29.28-86.35s-22.81,0-22.81,0Zm94.27,51.28c-1.35-3.01-3.29-5.62-5.8-7.83-2.52-2.21-5.52-4.05-9.02-5.52-3.5-1.47-7.46-2.7-11.88-3.68-7.12-1.72-12.37-3.34-15.74-4.88-3.38-1.53-5.06-3.65-5.06-6.35,0-2.21,1.01-4.08,3.04-5.62,2.03-1.53,5.61-2.3,10.77-2.3s9.63,.71,13.44,2.12c3.8,1.41,6.87,2.98,9.21,4.69l11.23-15.28c-4.3-3.19-9.11-5.58-14.45-7.18-5.34-1.59-11.82-2.39-19.42-2.39-4.3,0-8.56,.62-12.8,1.84-4.23,1.23-8.04,2.98-11.42,5.25s-6.11,5.09-8.19,8.47c-2.09,3.38-3.13,7.21-3.13,11.51s.89,7.76,2.67,10.77,4.05,5.59,6.81,7.73c2.76,2.15,5.74,3.84,8.93,5.06,3.19,1.23,6.26,2.21,9.21,2.94,4.79,1.11,8.59,2.15,11.42,3.13,2.82,.98,5.03,1.97,6.63,2.95,1.59,.98,2.64,2,3.13,3.04s.74,2.18,.74,3.41c0,2.83-1.41,4.85-4.23,6.07-2.83,1.23-6.57,1.84-11.23,1.84-5.28,0-9.97-.89-14.09-2.67-4.11-1.78-7.52-4.02-10.22-6.72l-13.07,14.18c3.93,4.42,9.14,7.76,15.65,10.03s13.81,3.41,21.91,3.41c5.03,0,9.79-.64,14.27-1.93s8.41-3.1,11.78-5.43c3.38-2.33,6.05-5.18,8.01-8.56s2.94-7.15,2.94-11.32c-.02-4.18-.69-7.77-2.04-10.78Zm-409.7,9.66c-7.02,0-12.7,5.69-12.7,12.7s5.69,12.7,12.7,12.7,12.7-5.69,12.7-12.7c0-7.01-5.68-12.7-12.7-12.7Z" fill="#fff"/><path d="M122.5,245C54.85,245,0,299.85,0,367.5s54.85,122.5,122.5,122.5,122.5-54.85,122.5-122.5-54.85-122.5-122.5-122.5Zm0,159.73c12.32,0,23.83-6.09,30.78-16.29,2.84-4.16,8.51-5.24,12.67-2.4,4.16,2.84,5.24,8.51,2.4,12.67-10.35,15.19-27.49,24.26-45.85,24.26-30.58,0-55.46-24.88-55.46-55.45s24.88-55.46,55.46-55.46c18.36,0,35.5,9.07,45.85,24.26,2.84,4.16,1.76,9.84-2.4,12.67-4.16,2.84-9.84,1.76-12.67-2.4-6.95-10.2-18.46-16.29-30.78-16.29-20.52,0-37.21,16.69-37.21,37.21s16.69,37.22,37.21,37.22Zm-52.87,13.8c13.81,14.3,32.36,22.27,52.22,22.45,19.91,.14,38.54-7.47,52.59-21.51,13.87-13.87,21.52-32.32,21.52-51.94s-7.64-38.07-21.52-51.94c-28.64-28.64-75.24-28.64-103.89,0-17.65,17.65-25.1,42.79-19.91,67.25,.45,2.11-.9,4.19-3.01,4.63-2.11,.45-4.19-.9-4.63-3.01-5.74-27.05,2.5-54.87,22.03-74.4,31.69-31.69,83.25-31.69,114.94,0s31.69,83.25,0,114.94c-15.37,15.37-35.75,23.8-57.45,23.81h-.73c-21.97-.19-42.49-9.01-57.77-24.83-1.5-1.55-1.46-4.03,.1-5.53,1.54-1.52,4.01-1.48,5.51,.08Zm-7.83-15.04c0,4.32-3.5,7.82-7.82,7.82s-7.82-3.5-7.82-7.82,3.5-7.82,7.82-7.82,7.82,3.5,7.82,7.82Zm108.98-131.61c4.32,0,7.82,3.5,7.82,7.82s-3.5,7.82-7.82,7.82-7.82-3.5-7.82-7.82c0-4.32,3.5-7.82,7.82-7.82Zm25.33,169.25c-19.66,19.66-45.81,30.49-73.61,30.49h0c-27.81,0-53.95-10.83-73.62-30.49-19.66-19.66-30.49-45.81-30.49-73.62s10.83-53.95,30.49-73.62c25.64-25.64,61.1-35.81,97.28-27.9,2.11,.46,3.45,2.54,2.98,4.65-.46,2.11-2.54,3.45-4.65,2.98-33.53-7.33-66.37,2.07-90.09,25.79-18.19,18.19-28.2,42.37-28.2,68.09s10.01,49.9,28.2,68.09,42.37,28.2,68.09,28.2,49.9-10.02,68.09-28.2c18.19-18.19,28.2-42.37,28.2-68.09s-10.45-50.53-28.66-68.53c-1.54-1.52-1.55-3.99-.03-5.53,1.52-1.54,3.99-1.55,5.53-.03,19.69,19.46,30.98,46.46,30.98,74.09,.01,27.82-10.82,53.97-30.49,73.63Z" fill="#0080c8"/></g><g id="light"><path d="M305.79,112.51c-.98,3.31-1.47,6.69-1.47,10.13s.49,6.57,1.47,9.76c.98,3.19,2.49,6.07,4.51,8.65,2.03,2.58,4.57,4.66,7.64,6.26,3.07,1.6,6.69,2.39,10.86,2.39s8.22-.83,11.78-2.49,6.57-3.9,9.02-6.72l12.89,13.99c-4.05,4.3-8.84,7.73-14.36,10.31s-11.97,3.87-19.33,3.87-13.93-1.11-19.7-3.31c-5.77-2.21-10.62-5.34-14.55-9.39s-6.94-8.9-9.02-14.55c-2.09-5.64-3.13-11.9-3.13-18.78,0-6.26,1.13-12.18,3.41-17.77,2.27-5.58,5.43-10.46,9.48-14.64,4.05-4.17,8.93-7.49,14.64-9.94,5.71-2.45,12-3.68,18.87-3.68s13.38,1.26,19.15,3.77c5.77,2.52,10.68,5.92,14.73,10.22l-13.81,13.99c-2.46-2.82-5.34-5.03-8.65-6.63-3.31-1.59-7.12-2.39-11.42-2.39s-7.8,.77-10.86,2.3c-3.07,1.54-5.62,3.53-7.64,5.98-2.02,2.47-3.53,5.35-4.51,8.67Zm112.13-34.62c-3.56,0-6.72,.43-9.48,1.29s-5.19,1.91-7.27,3.13c-2.09,1.23-3.9,2.58-5.43,4.05-1.54,1.47-2.79,2.82-3.77,4.05l-.55-10.86h-20.82v86.35h21.73v-46.58c0-3.19,.58-6.08,1.75-8.65,1.16-2.58,2.73-4.79,4.69-6.63s4.3-3.25,7-4.23,5.52-1.47,8.47-1.47c2.09,0,3.9,.12,5.43,.37s3.04,.68,4.51,1.29l4.42-20.44c-1.72-.61-3.41-1.04-5.06-1.29-1.66-.25-3.54-.38-5.62-.38Zm63.7,60.76l-24.67-59.1h-25.04l38.85,85.62-2.76,7c-2.09,5.16-4.08,8.96-5.98,11.42-1.9,2.45-4.33,3.68-7.27,3.68-2.21,0-4.05-.46-5.52-1.38s-2.82-1.87-4.05-2.85l-9.76,15.28c2.45,2.09,5.31,3.71,8.56,4.88,3.25,1.16,7.33,1.75,12.24,1.75,5.64,0,10.31-1.23,13.99-3.68,3.68-2.46,6.78-5.62,9.3-9.48,2.51-3.87,4.63-8.07,6.35-12.61,1.72-4.54,3.43-8.96,5.16-13.26l36.09-86.35h-23.75l-21.74,59.08Zm136.99-32.22c1.59,5.4,2.39,10.99,2.39,16.76,0,6.75-.98,12.52-2.95,17.31-1.97,4.79-4.42,8.96-7.36,12.52-4.91,5.89-10.28,10-16.11,12.34-5.83,2.33-11.82,3.5-17.95,3.5-2.83,0-5.25-.12-7.27-.37-2.03-.25-3.87-.58-5.52-1.01-1.66-.43-3.19-.92-4.6-1.47s-2.92-1.13-4.51-1.75v38.48h-21.54V79.55h20.99l.55,9.76c1.1-1.23,2.49-2.51,4.14-3.87,1.66-1.35,3.62-2.58,5.89-3.68s4.85-2.03,7.73-2.76c2.88-.74,6.11-1.1,9.67-1.1,6.63,0,12.36,1.29,17.22,3.87,4.85,2.58,8.87,5.98,12.06,10.22,3.18,4.22,5.57,9.04,7.17,14.44Zm-19.52,16.76c0-3.68-.4-7.12-1.2-10.31-.8-3.19-2.09-5.98-3.87-8.38-1.78-2.39-4.08-4.29-6.9-5.71-2.83-1.41-6.32-2.12-10.49-2.12-3.31,0-6.32,.71-9.02,2.12s-5,3.22-6.9,5.43-3.38,4.63-4.42,7.27-1.56,5.19-1.56,7.64v25.59c4.3,3.56,10.8,5.34,19.52,5.34,3.93,0,7.43-.77,10.49-2.3,3.07-1.53,5.68-3.56,7.83-6.08,2.15-2.51,3.77-5.37,4.88-8.56,1.09-3.18,1.64-6.5,1.64-9.93Zm81.11,25.59c-2.02,.98-4.76,1.47-8.19,1.47-3.68,0-6.35-1.32-8.01-3.96-1.66-2.64-2.48-6.41-2.48-11.32v-37.74h23.2v-17.68h-23.2v-27.99h-21.73v27.99h-14.73v17.68h14.73v39.22c0,4.79,.49,9.18,1.47,13.16,.98,3.99,2.61,7.4,4.88,10.22,2.27,2.83,5.25,5,8.93,6.54,3.68,1.53,8.16,2.3,13.44,2.3s9.82-.77,13.99-2.3,8.41-4.08,12.7-7.64l-9.2-13.45c-1.85,1.35-3.78,2.52-5.8,3.5Zm105.27-43.91c2.27,5.59,3.41,11.51,3.41,17.77s-1.14,12.18-3.41,17.77c-2.27,5.59-5.43,10.49-9.48,14.73-4.05,4.24-8.93,7.58-14.64,10.04-5.71,2.45-12,3.68-18.87,3.68s-13.17-1.23-18.87-3.68c-5.71-2.45-10.59-5.8-14.64-10.04-4.05-4.23-7.21-9.14-9.48-14.73-2.27-5.58-3.41-11.51-3.41-17.77s1.13-12.18,3.41-17.77c2.27-5.58,5.43-10.46,9.48-14.64,4.05-4.17,8.93-7.49,14.64-9.94,5.71-2.45,12-3.68,18.87-3.68s13.16,1.23,18.87,3.68c5.71,2.46,10.59,5.77,14.64,9.94s7.21,9.05,9.48,14.64Zm-18.5,17.77c0-3.07-.49-6.23-1.47-9.48-.98-3.25-2.49-6.2-4.51-8.84-2.03-2.64-4.57-4.79-7.64-6.44-3.07-1.66-6.69-2.49-10.86-2.49s-7.8,.83-10.86,2.49c-3.07,1.66-5.62,3.81-7.64,6.44-2.03,2.64-3.53,5.59-4.51,8.84s-1.47,6.42-1.47,9.48,.49,6.38,1.47,9.57c.98,3.19,2.49,6.14,4.51,8.84,2.03,2.7,4.57,4.88,7.64,6.53,3.07,1.66,6.69,2.49,10.86,2.49s7.79-.83,10.86-2.49,5.62-3.83,7.64-6.53c2.03-2.7,3.53-5.65,4.51-8.84,.98-3.19,1.47-6.38,1.47-9.57Zm119.86-44.93c-3.44,0-6.51,.37-9.21,1.1-2.7,.74-5.13,1.69-7.27,2.85-2.15,1.17-3.99,2.42-5.52,3.77-1.54,1.35-2.85,2.64-3.96,3.87l-.55-9.76h-20.81v86.35h21.73v-46.77c0-3.19,.52-6.17,1.57-8.93,1.04-2.76,2.49-5.18,4.33-7.27s4.05-3.71,6.63-4.88c2.58-1.16,5.34-1.75,8.29-1.75,4.79,0,8.68,1.5,11.69,4.51s4.51,7.27,4.51,12.8v52.29h21.73v-52.47c0-10.92-2.82-19.61-8.47-26.05-5.66-6.44-13.89-9.66-24.69-9.66Zm126.86,30.38c1.47,5.89,2.21,11.91,2.21,18.04v3.13h-64.44c0,3.19,.71,6.08,2.12,8.65,1.41,2.58,3.25,4.79,5.52,6.63,2.27,1.84,4.85,3.25,7.73,4.23s5.74,1.47,8.56,1.47c4.17,0,7.82-.4,10.96-1.2,3.13-.8,5.8-1.72,8.01-2.76s4.02-2.15,5.43-3.31,2.49-2.12,3.22-2.85l11.78,13.26c-.37,.37-1.38,1.38-3.04,3.04-1.66,1.66-4.05,3.41-7.18,5.25s-7.12,3.5-11.97,4.97-10.65,2.21-17.4,2.21-13.14-1.17-18.78-3.5c-5.65-2.33-10.47-5.55-14.45-9.67-3.99-4.11-7.06-9.05-9.21-14.82s-3.22-12.15-3.22-19.15c0-6.38,1.07-12.3,3.22-17.77,2.15-5.46,5.16-10.22,9.02-14.27,3.87-4.05,8.47-7.24,13.81-9.57s11.26-3.5,17.77-3.5c7.85,0,14.51,1.44,19.98,4.33,5.46,2.89,9.85,6.66,13.16,11.32,3.32,4.67,5.72,9.95,7.19,15.84Zm-20.07,5.52c0-2.21-.43-4.42-1.29-6.63s-2.12-4.2-3.77-5.98c-1.66-1.78-3.77-3.25-6.35-4.42-2.58-1.16-5.52-1.75-8.84-1.75-3.56,0-6.72,.58-9.48,1.75s-5.06,2.64-6.9,4.42-3.25,3.78-4.24,5.98c-.98,2.21-1.47,4.42-1.47,6.63h42.34Zm132.57-34.06l-16.39,60.02-18.41-60.02h-18.23l-18.23,60.02-16.57-60.02h-23.94l29.27,86.35h20.25l17.12-52.11,17.67,52.11h20.99l29.28-86.35s-22.81,0-22.81,0Zm94.27,51.28c-1.35-3.01-3.29-5.62-5.8-7.83-2.52-2.21-5.52-4.05-9.02-5.52-3.5-1.47-7.46-2.7-11.88-3.68-7.12-1.72-12.37-3.34-15.74-4.88-3.38-1.53-5.06-3.65-5.06-6.35,0-2.21,1.01-4.08,3.04-5.62,2.03-1.53,5.61-2.3,10.77-2.3s9.63,.71,13.44,2.12c3.8,1.41,6.87,2.98,9.21,4.69l11.23-15.28c-4.3-3.19-9.11-5.58-14.45-7.18-5.34-1.59-11.82-2.39-19.42-2.39-4.3,0-8.56,.62-12.8,1.84-4.23,1.23-8.04,2.98-11.42,5.25s-6.11,5.09-8.19,8.47c-2.09,3.38-3.13,7.21-3.13,11.51s.89,7.76,2.67,10.77,4.05,5.59,6.81,7.73c2.76,2.15,5.74,3.84,8.93,5.06,3.19,1.23,6.26,2.21,9.21,2.94,4.79,1.11,8.59,2.15,11.42,3.13,2.82,.98,5.03,1.97,6.63,2.95,1.59,.98,2.64,2,3.13,3.04s.74,2.18,.74,3.41c0,2.83-1.41,4.85-4.23,6.07-2.83,1.23-6.57,1.84-11.23,1.84-5.28,0-9.97-.89-14.09-2.67-4.11-1.78-7.52-4.02-10.22-6.72l-13.07,14.18c3.93,4.42,9.14,7.76,15.65,10.03s13.81,3.41,21.91,3.41c5.03,0,9.79-.64,14.27-1.93s8.41-3.1,11.78-5.43c3.38-2.33,6.05-5.18,8.01-8.56s2.94-7.15,2.94-11.32c-.02-4.18-.69-7.77-2.04-10.78Zm-409.7,9.66c-7.02,0-12.7,5.69-12.7,12.7s5.69,12.7,12.7,12.7,12.7-5.69,12.7-12.7c0-7.01-5.68-12.7-12.7-12.7Z"/><path d="M122.5,0C54.85,0,0,54.85,0,122.5s54.85,122.5,122.5,122.5,122.5-54.85,122.5-122.5S190.15,0,122.5,0Zm0,159.73c12.32,0,23.83-6.09,30.78-16.29,2.84-4.16,8.51-5.24,12.67-2.4,4.16,2.84,5.24,8.51,2.4,12.67-10.35,15.19-27.49,24.26-45.85,24.26-30.58,0-55.46-24.88-55.46-55.45s24.88-55.46,55.46-55.46c18.36,0,35.5,9.07,45.85,24.26,2.84,4.16,1.76,9.84-2.4,12.67-4.16,2.84-9.84,1.76-12.67-2.4-6.95-10.2-18.46-16.29-30.78-16.29-20.52,0-37.21,16.69-37.21,37.21s16.69,37.22,37.21,37.22Zm-52.87,13.8c13.81,14.3,32.36,22.27,52.22,22.45,19.91,.14,38.54-7.47,52.59-21.51,13.87-13.87,21.52-32.32,21.52-51.94s-7.64-38.07-21.52-51.94c-28.64-28.64-75.24-28.64-103.89,0-17.65,17.65-25.1,42.79-19.91,67.25,.45,2.11-.9,4.19-3.01,4.63-2.11,.45-4.19-.9-4.63-3.01-5.74-27.05,2.5-54.87,22.03-74.4,31.69-31.69,83.25-31.69,114.94,0s31.69,83.25,0,114.94c-15.37,15.37-35.75,23.8-57.45,23.81h-.73c-21.97-.19-42.49-9.01-57.77-24.83-1.5-1.55-1.46-4.03,.1-5.53,1.54-1.52,4.01-1.48,5.51,.08Zm-7.83-15.04c0,4.32-3.5,7.82-7.82,7.82s-7.82-3.5-7.82-7.82,3.5-7.82,7.82-7.82,7.82,3.5,7.82,7.82ZM170.78,26.88c4.32,0,7.82,3.5,7.82,7.82s-3.5,7.82-7.82,7.82-7.82-3.5-7.82-7.82c0-4.32,3.5-7.82,7.82-7.82Zm25.33,169.25c-19.66,19.66-45.81,30.49-73.61,30.49h0c-27.81,0-53.95-10.83-73.62-30.49-19.66-19.66-30.49-45.81-30.49-73.62s10.83-53.95,30.49-73.62c25.64-25.64,61.1-35.81,97.28-27.9,2.11,.46,3.45,2.54,2.98,4.65-.46,2.11-2.54,3.45-4.65,2.98-33.53-7.33-66.37,2.07-90.09,25.79-18.19,18.19-28.2,42.37-28.2,68.09s10.01,49.9,28.2,68.09,42.37,28.2,68.09,28.2,49.9-10.02,68.09-28.2c18.19-18.19,28.2-42.37,28.2-68.09s-10.45-50.53-28.66-68.53c-1.54-1.52-1.55-3.99-.03-5.53,1.52-1.54,3.99-1.55,5.53-.03,19.69,19.46,30.98,46.46,30.98,74.09,.01,27.82-10.82,53.97-30.49,73.63Z" fill="#0080c8"/></g></svg>